<?xml version="1.0"?>
<svg xmlns="http://www.w3.org/2000/svg" xmlns:xlink="http://www.w3.org/1999/xlink" xmlns:svgjs="http://svgjs.com/svgjs" version="1.1" width="512" height="512" x="0" y="0" viewBox="0 0 512 512" style="enable-background:new 0 0 512 512" xml:space="preserve" class=""><g>
<g xmlns="http://www.w3.org/2000/svg">
	<g>
		<path d="M286.526,198.718c-1.489-1.774-3.688-2.799-6.003-2.799h-41.674c-3.803,0-7.057,2.73-7.718,6.476l-7.37,41.796    c-0.403,2.281,0.226,4.624,1.715,6.398c1.489,1.774,3.686,2.799,6.003,2.799h41.674c3.803,0,7.057-2.73,7.718-6.476l7.37-41.796    C288.644,202.835,288.015,200.492,286.526,198.718z M266.578,237.715H240.82l4.605-26.122h25.758L266.578,237.715z" fill="#ffffff" data-original="#000000" style="" class=""/>
	</g>
</g>
<g xmlns="http://www.w3.org/2000/svg">
	<g>
		<path d="M362.117,211.594c15.844,0,28.735-12.89,28.735-28.735s-12.894-28.737-28.738-28.737h-22.441l4.238-24.034    c2.751-15.603-7.705-30.536-23.311-33.288c-1.654-0.292-3.34-0.439-5.009-0.439c-13.959,0-25.851,9.987-28.276,23.748    l-5.998,34.014h-25.758l4.238-24.034c2.751-15.604-7.705-30.536-23.31-33.288c-1.654-0.292-3.34-0.439-5.01-0.439    c-13.958,0-25.851,9.987-28.277,23.748l-5.998,34.014h-32.575c-15.844,0-28.735,12.89-28.735,28.735s12.891,28.735,28.735,28.735    h22.441l-4.605,26.122h-32.576c-15.844,0-28.735,12.89-28.735,28.735c0,15.845,12.891,28.735,28.735,28.735h22.441l-3.951,22.411    c-2.751,15.603,7.705,30.536,23.31,33.288c1.656,0.292,3.343,0.44,5.013,0.44c13.957,0,25.847-9.988,28.274-23.748l5.711-32.391    h25.758l-3.951,22.411c-2.751,15.603,7.705,30.536,23.31,33.288c1.656,0.292,3.343,0.44,5.013,0.44    c13.957,0,25.847-9.988,28.274-23.748l5.711-32.391h32.575c15.844,0,28.735-12.89,28.735-28.735    c0-15.845-12.891-28.735-28.735-28.735h-22.44l4.605-26.122H362.117z M309.591,250.589c1.489,1.774,3.686,2.799,6.003,2.799h31.78    c7.203,0,13.061,5.859,13.061,13.061c0,7.203-5.859,13.061-13.061,13.061h-39.15c-3.803,0-7.057,2.73-7.718,6.476l-6.854,38.866    c-1.103,6.256-6.503,10.797-12.839,10.797c-0.761,0-1.533-0.068-2.291-0.202c-7.093-1.251-11.846-8.038-10.596-15.131    l5.573-31.608c0.403-2.281-0.226-4.624-1.715-6.398s-3.686-2.799-6.003-2.799H224.11c-3.803,0-7.057,2.73-7.718,6.476    l-6.853,38.866c-1.103,6.256-6.503,10.797-12.839,10.797c-0.762,0-1.533-0.068-2.291-0.202    c-7.093-1.251-11.846-8.038-10.596-15.131l5.573-31.608c0.403-2.281-0.226-4.624-1.715-6.398    c-1.489-1.774-3.686-2.799-6.003-2.799h-31.781c-7.202,0-13.061-5.859-13.061-13.061c0-7.203,5.859-13.061,13.061-13.061h39.151    c3.803,0,7.057-2.73,7.718-6.476l7.37-41.796c0.403-2.281-0.226-4.624-1.715-6.398c-1.489-1.774-3.686-2.799-6.003-2.799h-31.781    c-7.203,0-13.061-5.859-13.061-13.061c0-7.202,5.859-13.061,13.061-13.061h39.15c3.803,0,7.057-2.73,7.718-6.476l7.14-40.49    c1.103-6.256,6.505-10.796,12.842-10.796c0.762,0,1.532,0.068,2.288,0.202c7.093,1.251,11.846,8.038,10.596,15.13l-5.86,33.232    c-0.403,2.282,0.225,4.624,1.715,6.399c1.489,1.774,3.686,2.799,6.003,2.799h41.674c3.803,0,7.057-2.73,7.718-6.476l7.14-40.49    c1.103-6.256,6.504-10.796,12.842-10.796c0.761,0,1.531,0.068,2.288,0.202c7.093,1.251,11.846,8.038,10.596,15.13l-5.86,33.232    c-0.403,2.282,0.225,4.624,1.715,6.399c1.489,1.774,3.686,2.799,6.003,2.799h31.781c7.202,0,13.061,5.859,13.061,13.061    c-0.002,7.2-5.862,13.059-13.063,13.059h-39.15c-3.803,0-7.057,2.73-7.718,6.476l-7.37,41.796    C307.473,246.472,308.102,248.815,309.591,250.589z" fill="#ffffff" data-original="#000000" style="" class=""/>
	</g>
</g>
<g xmlns="http://www.w3.org/2000/svg">
	<g>
		<path d="M437.987,26.468H74.013C33.202,26.468,0,60.235,0,101.739v244.455c0,41.506,33.202,75.273,74.013,75.273h3.237    l29.27,51.66c4.334,7.652,12.437,12.405,21.147,12.405c8.708,0,16.811-4.753,21.146-12.404l29.271-51.661h259.904    c40.812,0,74.013-33.767,74.013-75.273V101.739C512,60.235,478.798,26.468,437.987,26.468z M496.327,346.194    c0,32.863-26.172,59.6-58.34,59.6H173.516c-2.822,0-5.427,1.518-6.818,3.974l-31.521,55.635c-1.558,2.749-4.435,4.458-7.51,4.458    c-3.074,0-5.952-1.707-7.51-4.458l-31.521-55.635c-1.391-2.456-3.996-3.974-6.818-3.974h-7.804c-32.168,0-58.34-26.736-58.34-59.6    V101.739c0-32.862,26.172-59.598,58.34-59.598h363.974c32.168,0,58.34,26.736,58.34,59.598V346.194z" fill="#ffffff" data-original="#000000" style="" class=""/>
	</g>
</g>
<g xmlns="http://www.w3.org/2000/svg">
</g>
<g xmlns="http://www.w3.org/2000/svg">
</g>
<g xmlns="http://www.w3.org/2000/svg">
</g>
<g xmlns="http://www.w3.org/2000/svg">
</g>
<g xmlns="http://www.w3.org/2000/svg">
</g>
<g xmlns="http://www.w3.org/2000/svg">
</g>
<g xmlns="http://www.w3.org/2000/svg">
</g>
<g xmlns="http://www.w3.org/2000/svg">
</g>
<g xmlns="http://www.w3.org/2000/svg">
</g>
<g xmlns="http://www.w3.org/2000/svg">
</g>
<g xmlns="http://www.w3.org/2000/svg">
</g>
<g xmlns="http://www.w3.org/2000/svg">
</g>
<g xmlns="http://www.w3.org/2000/svg">
</g>
<g xmlns="http://www.w3.org/2000/svg">
</g>
<g xmlns="http://www.w3.org/2000/svg">
</g>
</g></svg>
