<?xml version="1.0"?>
<svg xmlns="http://www.w3.org/2000/svg" xmlns:xlink="http://www.w3.org/1999/xlink" xmlns:svgjs="http://svgjs.com/svgjs" version="1.1" width="512" height="512" x="0" y="0" viewBox="0 0 480 479" style="enable-background:new 0 0 512 512" xml:space="preserve" class=""><g><path xmlns="http://www.w3.org/2000/svg" d="m184 380.5c0 19.882812 16.117188 36 36 36s36-16.117188 36-36-16.117188-36-36-36c-19.875.023438-35.976562 16.125-36 36zm36-20c11.046875 0 20 8.953125 20 20s-8.953125 20-20 20-20-8.953125-20-20 8.953125-20 20-20zm0 0" fill="#ffffff" data-original="#000000" style=""/><path xmlns="http://www.w3.org/2000/svg" d="m328 380.5c0 19.882812 16.117188 36 36 36s36-16.117188 36-36-16.117188-36-36-36c-19.875.023438-35.976562 16.125-36 36zm36-20c11.046875 0 20 8.953125 20 20s-8.953125 20-20 20-20-8.953125-20-20 8.953125-20 20-20zm0 0" fill="#ffffff" data-original="#000000" style=""/><path xmlns="http://www.w3.org/2000/svg" d="m480 144.5c-.027344-3.617188-2.515625-6.75-6.03125-7.601562-.050781-.027344-.101562-.054688-.152344-.078126-.144531 0-.28125 0-.417968 0-.453126-.148437-.921876-.253906-1.398438-.320312h-32v-128c0-4.417969-3.582031-8-8-8h-248c-4.417969 0-8 3.582031-8 8v48h-40c-4.417969 0-8 3.582031-8 8v72h-18.585938l-21.886718-74.265625c-1.003906-3.398437-4.125-5.734375-7.671875-5.734375h-79.855469v16h73.871094l78.457031 266.265625c1.003906 3.398437 4.125 5.734375 7.671875 5.734375h256c3.5625 0 6.699219-2.351562 7.6875-5.777344l55.066406-190.183594c.777344-1.207031 1.207032-2.601562 1.246094-4.039062zm-347.015625 72h67.953125l6 48h-59.808594zm84.078125 0h62.9375v48h-56.9375zm149.875-64-6 48h-64.9375v-48zm-86.9375 48h-64.9375l-6-48h70.9375zm0 80v48h-48.9375l-6-48zm16 0h54.9375l-6 48h-48.9375zm0-16v-48h62.9375l-6 48zm79.0625-48h67.335938l-13.894532 48h-59.441406zm2-16 6-48h77.875l-13.898438 48zm-185.0625-184h232v120h-120v-72c0-4.417969-3.582031-8-8-8h-104zm-48 56h144v64h-144zm48.9375 80 6 48h-70.664062l-14.144532-48zm-41.097656 128h57.097656l6 48h-48.953125zm258.144531 48h-48.921875l6-48h56.800781zm0 0" fill="#ffffff" data-original="#000000" style=""/></g></svg>
