<svg xmlns="http://www.w3.org/2000/svg" width="231.456" height="31.712" viewBox="0 0 231.456 31.712"><defs><style>.a{fill:#215399;}</style></defs><path class="a" d="M25.92-18.72c0,4.9-6.688,12.064-11.072,12.064a6,6,0,0,1-2.336-.576c-.1,0-.16.064-.16.192,0,.64,1.44,1.792,3.68,1.792,5.312,0,11.936-6.5,11.936-12.16,0-2.368-1.248-4-3.488-4-4.256,0-10.624,7.456-13.92,12.352,2.272-4.16,3.616-7.36,3.616-9.632,0-1.728-1.12-3.3-3.616-3.3C6.048-21.984,0-17.024,0-11.616,0-9.344,1.536-8.288,2.3-8.288c.224,0,.288-.1.288-.192a4.2,4.2,0,0,1-.512-2.4c0-5.152,5.056-10.112,8.96-10.112.864,0,1.344.416,1.344,1.152C12.384-16.768,5.6-5.92,5.6-1.984A2.225,2.225,0,0,0,7.2.256c.192,0,.256-.1.256-.32,0-1.184,1.056-4.16,3.52-8.032,3.3-5.216,9.792-12.288,13.472-12.288C25.344-20.384,25.92-19.808,25.92-18.72Zm1.6,8.064a2.834,2.834,0,0,1,.1.736,13.171,13.171,0,0,1-.864,4c-.768,2.3-1.536,3.68-1.536,4.128A1.685,1.685,0,0,0,26.5-.64c.64,0,.672-1.472,2.368-4.288,2.368-3.9,4.608-5.024,5.984-5.024A3.441,3.441,0,0,1,36-9.664a.219.219,0,0,0,.224-.224,2.219,2.219,0,0,0-2.112-1.824c-1.952,0-3.392,2.688-5.632,6.048A13.935,13.935,0,0,0,29.7-9.5c0-.992-1.184-1.376-1.824-1.376C27.584-10.88,27.52-10.784,27.52-10.656Zm14.72-1.632c-1.376,0-2.432.992-2.432,1.536,0,.16.1.256.16.256a2.2,2.2,0,0,1,1.536-.736c.672,0,1.184.416,1.184,1.76,0,3.488-3.3,8.16-5.44,8.16-.7,0-1.056-.48-1.056-1.376,0-2.112,2.112-5.088,4.32-6.272.384-.224.544-.32.544-.512,0-.16-.1-.32-.384-.32a3.724,3.724,0,0,0-.832.128c-2.752.7-5.92,3.648-5.92,6.4A2.77,2.77,0,0,0,36.672-.352c3.168,0,7.744-5.6,7.744-9.408C44.416-11.392,43.552-12.288,42.24-12.288Zm10.24-2.72a1.264,1.264,0,0,0-.9-1.376c-.64-.1-1.6.928-1.792,1.984a1.089,1.089,0,0,0,.864,1.312C51.264-12.992,52.32-14.144,52.48-15.008Zm-13.088,24c1.088-.768,1.92-2.24,2.784-4.256,1.632-3.84,3.04-9.248,4.16-12.16,1.216-3.264,2.176-4.256,3.1-4.256a.846.846,0,0,1,.9.576c0,.384-1.312,1.28-2.4,4.288C46.976-4.128,46.048.256,44.7,4,43.04,8.64,40.48,9.728,39.52,9.728c-.288,0-.448-.128-.448-.32C39.072,9.28,39.136,9.152,39.392,8.992ZM50.144-3.488A2.829,2.829,0,0,0,53.312-.352c3.136,0,6.688-3.232,8-5.056.192-.256.224-.352.224-.48,0-.1-.032-.16-.128-.16s-.192,0-.416.288c-1.12,1.312-4.288,4.352-7.04,4.352-1.088,0-1.568-.448-1.568-1.408a5.79,5.79,0,0,1,.448-2.048C56.608-5.7,59.52-8,59.52-9.568c0-.9-.544-1.536-2.08-1.536C54.624-11.1,50.144-6.976,50.144-3.488ZM58.336-9.92c0,.96-2.3,3.616-5.216,4.416,1.152-2.4,3.36-4.832,4.8-4.864C58.176-10.368,58.336-10.24,58.336-9.92Zm7.776,2.656c2.464-1.984,3.52-2.336,5.344-2.528.1,0,.192-.064.192-.128,0-.384-1.248-1.152-2.08-1.152-1.6,0-4.832,3.2-8.16,7.264,2.4-6.272,5.856-12.224,8.256-13.76.32-.192.448-.288.448-.416,0-.288-.64-.9-1.408-.9-3.456,0-9.28,13.536-9.28,17.856,0,1.248.544,1.44.736,1.44.448,0,.448-1.248.96-2.3a12.26,12.26,0,0,1,2.464-3.136C64-2.848,65.056-.7,67.1-.7c2.272,0,4.64-2.464,6.208-4.576A.714.714,0,0,0,73.5-5.7a.24.24,0,0,0-.224-.224c-.064,0-.128.1-.32.32C71.744-4.1,69.984-2.5,68-2.5c-1.472,0-2.816-1.056-3.84-3.072C64.9-6.272,65.6-6.848,66.112-7.264ZM73.6-2.272c0-1.824,1.088-4.7,3.648-8.448a8.3,8.3,0,0,1,2.336-.384,6.833,6.833,0,0,1,.8.064.663.663,0,0,0,.48-.48c0-.192-.416-.352-1.28-.352-.448,0-1.024.064-1.632.128.512-.7,1.088-1.44,1.7-2.208.384-.48.576-.576.576-.768a1.615,1.615,0,0,0-1.248-1.024c-.9,0-2.112,1.44-3.584,3.872l-.32.544a9.622,9.622,0,0,1-1.248.1,5.1,5.1,0,0,1-1.568-.288.146.146,0,0,0-.128.16,1.846,1.846,0,0,0,1.984,1.344H74.3c-1.5,2.752-2.592,5.44-2.592,7.3,0,2.144,1.12,3.168,2.5,3.168,2.3,0,5.056-3.3,6.592-5.76a1.169,1.169,0,0,0,.224-.448.184.184,0,0,0-.192-.192c-.1,0-.192.032-.384.32C79.424-4.1,76.512-.672,74.816-.672,74.048-.672,73.6-1.152,73.6-2.272ZM88-12.288c-1.376,0-2.432.992-2.432,1.536,0,.16.1.256.16.256a2.2,2.2,0,0,1,1.536-.736c.672,0,1.184.416,1.184,1.76,0,3.488-3.3,8.16-5.44,8.16-.7,0-1.056-.48-1.056-1.376,0-2.112,2.112-5.088,4.32-6.272.384-.224.544-.32.544-.512,0-.16-.1-.32-.384-.32a3.724,3.724,0,0,0-.832.128c-2.752.7-5.92,3.648-5.92,6.4A2.77,2.77,0,0,0,82.432-.352c3.168,0,7.744-5.6,7.744-9.408C90.176-11.392,89.312-12.288,88-12.288ZM100.768-2.112c-.768,0-1.12-.48-1.12-1.376a5.944,5.944,0,0,1,1.472-3.584c.384-.48.544-.608.544-.8a1.7,1.7,0,0,0-1.312-1.056c-.384,0-.96.768-1.5,1.76C97.5-5.248,94.016-.8,92.608-.8c-.512,0-.768-.32-.768-1.024,0-1.6,1.216-3.968,4.576-7.872.448-.512.672-.576.672-.8a1.533,1.533,0,0,0-1.216-.992c-1.824,0-5.92,6.464-5.92,9.216,0,1.76.992,2.592,2.208,2.592,1.408,0,3.84-2.528,5.792-5.152a3.391,3.391,0,0,0-.128.928c0,2.048,1.12,2.912,2.5,2.912,3.008,0,7.68-4.832,7.68-9.216,0-2.784-1.952-3.936-3.3-3.936-.576,0-.864.192-.864.32,0,.352,1.92.928,1.92,3.968C105.76-6.016,102.816-2.112,100.768-2.112Zm7.04.7a1.429,1.429,0,0,0,1.28,1.376c.16,0,.256-.064.384-.288,3.392-5.952,6.816-8.16,7.648-8.16a.336.336,0,0,1,.352.352c0,.64-1.792,2.784-1.792,4.384A2.1,2.1,0,0,0,117.952-1.7c1.984,0,4.192-2.368,5.024-3.68a1.169,1.169,0,0,0,.224-.448.184.184,0,0,0-.192-.192c-.1,0-.192.032-.384.32-.576.8-2.3,2.752-3.744,2.752a.9.9,0,0,1-1.024-1.024c0-1.408,1.568-3.1,1.568-4.352a1.464,1.464,0,0,0-1.536-1.408c-2.08,0-5.7,3.744-8.032,7.072a25.831,25.831,0,0,1,3.392-6.784c.352-.48.544-.608.544-.8a1.75,1.75,0,0,0-1.344-1.216C110.784-11.456,107.808-3.392,107.808-1.408Zm16.448.9c-1.184,0-2.144-.864-2.144-2.752,0-2.176,3.008-7.68,4.576-7.68a1.533,1.533,0,0,1,1.216.992c0,.192-.16.32-.544.8C124.832-5.92,124-4.16,124-2.72c0,.736.288,1.088.928,1.088,1.824,0,4.032-2.848,4.864-4,.192-.288.288-.32.384-.32a.184.184,0,0,1,.192.192,1.169,1.169,0,0,1-.224.448C129.088-3.648,126.528-.512,124.256-.512Zm6.784-14.5a1.244,1.244,0,0,0-.9-1.376c-.64-.128-1.6.928-1.792,1.984a1.089,1.089,0,0,0,.864,1.312C129.824-12.992,130.88-14.144,131.04-15.008Zm8.992,4.8c.288.128.448-.1.256-.352a2.055,2.055,0,0,0-1.824-.768c-4.224,0-9.92,5.248-9.92,9.024a1.833,1.833,0,0,0,1.792,2.08c1.7,0,3.9-2.08,5.6-4.1a3.2,3.2,0,0,0-.256,1.312A1.924,1.924,0,0,0,137.7-1.024c2.272,0,4.7-2.848,5.7-4.416a.844.844,0,0,0,.192-.48.151.151,0,0,0-.16-.16c-.1,0-.16.032-.384.32-.8,1.056-2.976,3.808-4.832,3.808-.48,0-.864-.256-.864-1.056,0-1.376,1.568-2.848,1.568-3.52,0-.48-.64-1.248-1.024-1.248-.192,0-.32.352-1.344,1.664-2.112,2.688-4.256,4.64-5.12,4.64-.288,0-.544-.224-.544-.864,0-2.432,4.64-8,8.512-8A1.741,1.741,0,0,1,140.032-10.208ZM148,.032c-2.272,0-3.36-.992-3.36-2.432a5.629,5.629,0,0,1,2.432-4c.256-.192.352-.288.352-.384,0-.256-.416-.544-.928-.544-1.664,0-3.1,2.048-3.1,4.256,0,2.784,1.952,4.864,5.5,4.864,4.224,0,8.16-3.168,8.16-6.464,0-1.792-.416-2.816-3.072-5.536-1.376-1.44-2.016-2.432-2.016-3.872,0-3.04,3.808-6.5,6.912-6.5,1.7,0,2.528.9,2.528,2.144a5.8,5.8,0,0,1-2.5,4.192c-.256.192-.352.288-.352.384,0,.256.48.544,1.088.544,1.6,0,3.008-2.144,3.008-4.448,0-2.4-1.7-4.224-4.768-4.224-3.712,0-8.64,4.064-8.64,7.712,0,2.432,1.088,3.9,3.872,6.24,1.856,1.568,2.336,2.3,2.336,3.36C155.456-2.336,151.84.032,148,.032ZM168.992-9.76A16.571,16.571,0,0,1,168-5.92c-.832,2.5-1.632,4-1.632,4.48a1.685,1.685,0,0,0,1.28,1.152c.672,0,.64-1.632,2.464-4.64,2.528-4.16,4.864-5.344,6.336-5.344a3.441,3.441,0,0,1,1.152.288.219.219,0,0,0,.224-.224,2.219,2.219,0,0,0-2.112-1.824c-2.08,0-3.616,2.816-5.984,6.368a12.266,12.266,0,0,0,1.12-3.744c0-1.44-.96-2.528-3.168-2.528a22.011,22.011,0,0,0-2.592.256,11.785,11.785,0,0,1,2.336-2.88c.416-.288.608-.32.608-.48a1.515,1.515,0,0,0-1.376-.9c-1.088,0-2.688,2.016-4.1,4.608-.48.032-.9.064-1.248.064a5.094,5.094,0,0,1-1.568-.288.146.146,0,0,0-.128.16,1.846,1.846,0,0,0,1.984,1.344h.32a20.262,20.262,0,0,0-2.208,7.584c0,2.592,1.216,3.9,1.6,3.9a.269.269,0,0,0,.288-.288,7.937,7.937,0,0,1-.384-2.24c0-2.816,1.568-6.656,3.232-9.536a12.015,12.015,0,0,1,3.232-.576C168.64-11.2,168.992-10.72,168.992-9.76Zm28.96.032c-1.952,0-5.312,3.36-7.648,6.56.928-2.208,2.016-5.024,2.016-6.848,0-1.408-.96-2.432-3.136-2.432-2.272,0-4.32,1.056-4.32,1.632,0,.416.608.384.608,1.6,0,3.36-3.264,7.9-5.376,7.9-.7,0-1.056-.48-1.056-1.376,0-2.112,2.112-5.088,4.32-6.272.384-.224.544-.32.544-.512,0-.16-.1-.32-.384-.32a3.724,3.724,0,0,0-.832.128c-2.752.7-5.92,3.648-5.92,6.4A2.77,2.77,0,0,0,179.52-.352c3.168,0,7.776-5.472,7.776-9.184a3.863,3.863,0,0,0-.32-1.664,5.223,5.223,0,0,1,2.208-.512c.96,0,1.312.48,1.312,1.44,0,2.5-2.976,6.848-2.976,8.448a1.844,1.844,0,0,0,1.632,1.792c.16,0,.256-.064.384-.288,3.392-5.952,6.816-8.16,7.648-8.16a.336.336,0,0,1,.352.352c0,.64-1.792,2.784-1.792,4.384A2.1,2.1,0,0,0,198.016-1.7c1.984,0,4.192-2.368,5.024-3.68a1.169,1.169,0,0,0,.224-.448.184.184,0,0,0-.192-.192c-.1,0-.192.032-.384.32-.576.8-2.3,2.752-3.744,2.752a.9.9,0,0,1-1.024-1.024c0-1.408,1.568-3.1,1.568-4.352A1.464,1.464,0,0,0,197.952-9.728Zm7.84,8.128a1.538,1.538,0,0,0-1.376-1.408c-.768,0-1.728,1.44-1.728,2.72a1.286,1.286,0,0,0,1.28,1.376C204.736,1.088,205.792-.512,205.792-1.6ZM219.2-11.072c-2.048,0-4.9,2.72-6.656,4.928a30.482,30.482,0,0,1,2.912-5.248c.352-.48.544-.608.544-.8a1.75,1.75,0,0,0-1.344-1.216c-.992,0-2.656,3.2-4.384,7.552-1.856,4.672-2.88,8.608-2.88,10.976,0,1.92,1.184,2.848,1.568,2.848a.286.286,0,0,0,.288-.288,5.892,5.892,0,0,1-.256-1.536,24.05,24.05,0,0,1,1.6-7.2,12.675,12.675,0,0,1,1.7-3.424c1.7-2.432,5.056-5.472,6.208-5.472.256,0,.416.16.416.736,0,2.592-3.136,6.88-5.536,6.88a4.434,4.434,0,0,1-1.12-.256c-.16,0-.256.192-.256.256,0,.192.64.7,1.952.7,3.968,0,7.008-4.416,7.008-7.3C220.96-10.368,220.256-11.072,219.2-11.072Zm4.416,8.64c0-2.912,2.336-8.192,4.512-11.488a11.346,11.346,0,0,1,2.688-3.136c.352-.288.64-.32.64-.512,0-.256-.576-.832-1.344-.832-1.344,0-2.5,1.5-4,3.84C224-11.232,221.76-5.984,221.76-2.848,221.76-.8,222.816.16,224.128.16c2.208,0,4.8-3.328,6.336-5.76a1.169,1.169,0,0,0,.224-.448.184.184,0,0,0-.192-.192c-.1,0-.192.032-.384.32-1.184,1.7-3.776,4.96-5.376,4.96C224-.96,223.616-1.408,223.616-2.432Z" transform="translate(0 21.984)"/></svg>